<svg xmlns="http://www.w3.org/2000/svg" version="1.1" xmlns:xlink="http://www.w3.org/1999/xlink" xmlns:svgjs="http://svgjs.dev/svgjs" width="1920" height="1080" preserveAspectRatio="none" viewBox="0 0 1920 1080"><g mask="url(&quot;#SvgjsMask1776&quot;)" fill="none"><rect width="1920" height="1080" x="0" y="0" fill="url(&quot;#SvgjsLinearGradient1777&quot;)"></rect><path d="M1920 0L1650.42 0L1920 253.17z" fill="rgba(255, 255, 255, .1)"></path><path d="M1650.42 0L1920 253.17L1920 432.77L1447.76 0z" fill="rgba(255, 255, 255, .075)"></path><path d="M1447.76 0L1920 432.77L1920 801.12L1056.55 0z" fill="rgba(255, 255, 255, .05)"></path><path d="M1056.55 0L1920 801.12L1920 989.6L970.1099999999999 0z" fill="rgba(255, 255, 255, .025)"></path><path d="M0 1080L832.03 1080L0 1027.17z" fill="rgba(0, 0, 0, .1)"></path><path d="M0 1027.17L832.03 1080L835.98 1080L0 460.6600000000001z" fill="rgba(0, 0, 0, .075)"></path><path d="M0 460.65999999999997L835.98 1080L859.98 1080L0 257.02z" fill="rgba(0, 0, 0, .05)"></path><path d="M0 257.02L859.98 1080L917.96 1080L0 145.76z" fill="rgba(0, 0, 0, .025)"></path></g><defs><mask id="SvgjsMask1776"><rect width="1920" height="1080" fill="#ffffff"></rect></mask><linearGradient x1="50%" y1="100%" x2="50%" y2="0%" gradientUnits="userSpaceOnUse" id="SvgjsLinearGradient1777"><stop stop-color="rgba(12, 12, 12, 1)" offset="0.27"></stop><stop stop-color="rgba(0, 69, 158, 1)" offset="1"></stop></linearGradient></defs></svg>